<svg xmlns="http://www.w3.org/2000/svg" xmlns:xlink="http://www.w3.org/1999/xlink" width="500" zoomAndPan="magnify" viewBox="0 0 375 374.999991" height="500" preserveAspectRatio="xMidYMid meet" version="1.0"><defs><g/><clipPath id="fc5ed81fda"><path d="M 53 142 L 102 142 L 102 201 L 53 201 Z M 53 142 " clip-rule="nonzero"/></clipPath><clipPath id="d51a252a64"><path d="M 45.542969 150.648438 L 65.085938 135.535156 L 108.703125 191.9375 L 89.15625 207.054688 Z M 45.542969 150.648438 " clip-rule="nonzero"/></clipPath><clipPath id="0c7b33dad4"><path d="M 92 142 L 141 142 L 141 201 L 92 201 Z M 92 142 " clip-rule="nonzero"/></clipPath><clipPath id="871c432436"><path d="M 128.417969 135.625 L 148.011719 150.675781 L 104.585938 207.222656 L 84.988281 192.171875 Z M 128.417969 135.625 " clip-rule="nonzero"/></clipPath></defs><g clip-path="url(#fc5ed81fda)"><g clip-path="url(#d51a252a64)"><path fill="#c60d34" d="M 55.316406 143.09375 C 49.917969 147.265625 55.304688 163.277344 67.351562 178.851562 C 79.394531 194.425781 93.535156 203.667969 98.929688 199.496094 C 104.328125 195.324219 98.9375 179.3125 86.894531 163.738281 C 74.851562 148.164062 60.710938 138.917969 55.316406 143.09375 " fill-opacity="1" fill-rule="nonzero"/></g></g><g clip-path="url(#0c7b33dad4)"><g clip-path="url(#871c432436)"><path fill="#c60d34" d="M 138.214844 143.148438 C 132.804688 138.992188 118.695312 148.285156 106.703125 163.898438 C 94.710938 179.515625 89.375 195.542969 94.785156 199.699219 C 100.199219 203.851562 114.304688 194.5625 126.296875 178.949219 C 138.289062 163.332031 143.625 147.304688 138.214844 143.148438 " fill-opacity="1" fill-rule="nonzero"/></g></g><g fill="#000000" fill-opacity="1"><g transform="translate(148.763448, 176.195116)"><g><path d="M 19.484375 -22.71875 L 13.140625 -22.71875 L 13.140625 -25.140625 C 13.140625 -25.398438 13.050781 -25.625 12.875 -25.8125 C 12.707031 -26 12.492188 -26.09375 12.234375 -26.09375 L 9.625 -26.09375 C 9.363281 -26.09375 9.144531 -26 8.96875 -25.8125 C 8.800781 -25.625 8.71875 -25.398438 8.71875 -25.140625 L 8.71875 -19.671875 C 8.71875 -19.410156 8.800781 -19.1875 8.96875 -19 C 9.144531 -18.8125 9.363281 -18.71875 9.625 -18.71875 L 13.90625 -18.71875 C 17.84375 -18.65625 19.8125 -16.5625 19.8125 -12.4375 L 19.8125 -5.8125 C 19.8125 -1.625 17.84375 0.46875 13.90625 0.46875 L 8.28125 0.46875 C 4.34375 0.46875 2.375 -1.625 2.375 -5.8125 L 2.375 -9 L 8.71875 -9 L 8.71875 -5.578125 C 8.71875 -5.316406 8.800781 -5.09375 8.96875 -4.90625 C 9.144531 -4.71875 9.363281 -4.625 9.625 -4.625 L 12.578125 -4.625 C 12.828125 -4.625 13.039062 -4.71875 13.21875 -4.90625 C 13.394531 -5.09375 13.484375 -5.316406 13.484375 -5.578125 L 13.484375 -11.625 C 13.484375 -11.875 13.394531 -12.09375 13.21875 -12.28125 C 13.039062 -12.476562 12.828125 -12.578125 12.578125 -12.578125 L 8.28125 -12.578125 C 4.34375 -12.578125 2.375 -14.671875 2.375 -18.859375 L 2.375 -25 C 2.375 -29.195312 4.34375 -31.296875 8.28125 -31.296875 L 13.578125 -31.296875 C 17.515625 -31.296875 19.484375 -29.195312 19.484375 -25 Z M 19.484375 -22.71875 "/></g></g></g><g fill="#000000" fill-opacity="1"><g transform="translate(171.527926, 176.195116)"><g><path d="M 9.046875 -12.09375 L 9.046875 0 L 2.375 0 L 2.375 -30.8125 L 9.046875 -30.8125 L 9.046875 -17.90625 L 14.328125 -17.90625 L 14.328125 -30.8125 L 21 -30.8125 L 21 0 L 14.328125 0 L 14.328125 -12.09375 Z M 9.046875 -12.09375 "/></g></g></g><g fill="#000000" fill-opacity="1"><g transform="translate(195.864009, 176.195116)"><g><path d="M 14.625 -31.296875 C 18.5625 -31.296875 20.53125 -29.195312 20.53125 -25 L 20.53125 0 L 13.859375 0 L 13.859375 -10.328125 L 9.046875 -10.328125 L 9.046875 0 L 2.375 0 L 2.375 -25 C 2.375 -29.195312 4.34375 -31.296875 8.28125 -31.296875 Z M 9.046875 -15.484375 L 13.859375 -15.484375 L 13.859375 -25.8125 C 13.859375 -26.0625 13.769531 -26.28125 13.59375 -26.46875 C 13.414062 -26.664062 13.203125 -26.765625 12.953125 -26.765625 L 9.953125 -26.765625 C 9.703125 -26.765625 9.488281 -26.664062 9.3125 -26.46875 C 9.132812 -26.28125 9.046875 -26.0625 9.046875 -25.8125 Z M 9.046875 -15.484375 "/></g></g></g><g fill="#000000" fill-opacity="1"><g transform="translate(219.914345, 176.195116)"><g><path d="M 14.625 -30.8125 C 18.5625 -30.8125 20.53125 -28.71875 20.53125 -24.53125 L 20.53125 -6.28125 C 20.53125 -2.09375 18.5625 0 14.625 0 L 2.375 0 L 2.375 -30.8125 Z M 13.859375 -5.53125 L 13.859375 -25.34375 C 13.859375 -25.59375 13.769531 -25.8125 13.59375 -26 C 13.414062 -26.1875 13.203125 -26.28125 12.953125 -26.28125 L 9.046875 -26.28125 L 9.046875 -4.578125 L 12.953125 -4.578125 C 13.203125 -4.578125 13.414062 -4.671875 13.59375 -4.859375 C 13.769531 -5.046875 13.859375 -5.269531 13.859375 -5.53125 Z M 13.859375 -5.53125 "/></g></g></g><g fill="#000000" fill-opacity="1"><g transform="translate(243.964677, 176.195116)"><g><path d="M 20.234375 -30.8125 L 13.625 -11.234375 L 13.625 0 L 6.953125 0 L 6.953125 -11.234375 L 0.328125 -30.8125 L 6.625 -30.8125 L 10.28125 -17.953125 L 13.953125 -30.8125 Z M 20.234375 -30.8125 "/></g></g></g><g fill="#000000" fill-opacity="1"><g transform="translate(265.633794, 176.195116)"><g><path d="M 14.625 -31.296875 C 18.5625 -31.296875 20.53125 -29.195312 20.53125 -25 L 20.53125 0 L 13.859375 0 L 13.859375 -10.328125 L 9.046875 -10.328125 L 9.046875 0 L 2.375 0 L 2.375 -25 C 2.375 -29.195312 4.34375 -31.296875 8.28125 -31.296875 Z M 9.046875 -15.484375 L 13.859375 -15.484375 L 13.859375 -25.8125 C 13.859375 -26.0625 13.769531 -26.28125 13.59375 -26.46875 C 13.414062 -26.664062 13.203125 -26.765625 12.953125 -26.765625 L 9.953125 -26.765625 C 9.703125 -26.765625 9.488281 -26.664062 9.3125 -26.46875 C 9.132812 -26.28125 9.046875 -26.0625 9.046875 -25.8125 Z M 9.046875 -15.484375 "/></g></g></g><g fill="#000000" fill-opacity="1"><g transform="translate(289.684125, 176.195116)"><g><path d="M 20.234375 -30.8125 L 15.328125 -15.4375 L 20.859375 0 L 13.90625 0 L 10.671875 -10.765625 L 7.421875 0 L 0.421875 0 L 5.953125 -15.4375 L 1.140625 -30.8125 L 7.625 -30.8125 L 10.671875 -20.859375 L 13.71875 -30.8125 Z M 20.234375 -30.8125 "/></g></g></g><g fill="#000000" fill-opacity="1"><g transform="translate(161.775334, 197.499959)"><g><path d="M 1.496094 0 L 7.808594 0 C 11.929688 0 13.601562 -2.300781 13.601562 -4.554688 C 13.601562 -6.117188 12.648438 -7.699219 11.085938 -8.15625 C 11.976562 -8.480469 12.710938 -9.652344 12.710938 -11 C 12.710938 -13.296875 10.976562 -15.402344 7.160156 -15.402344 L 1.496094 -15.402344 Z M 4.816406 -9.003906 L 4.816406 -12.605469 L 7.203125 -12.605469 C 8.65625 -12.605469 9.371094 -11.800781 9.371094 -10.804688 C 9.371094 -9.742188 8.65625 -9.003906 7.265625 -9.003906 Z M 4.816406 -2.796875 L 4.816406 -6.617188 L 7.636719 -6.617188 C 9.261719 -6.617188 10.152344 -5.964844 10.152344 -4.75 C 10.152344 -3.492188 9.4375 -2.796875 7.636719 -2.796875 Z M 4.816406 -2.796875 "/></g></g></g><g fill="#000000" fill-opacity="1"><g transform="translate(176.503981, 197.499959)"><g><path d="M 1.367188 0 L 4.75 0 L 4.75 -5.878906 C 4.75 -7.875 5.617188 -8.65625 7.550781 -8.65625 C 7.894531 -8.65625 8.265625 -8.632812 8.675781 -8.589844 L 8.675781 -11.714844 C 8.351562 -11.78125 7.941406 -11.800781 7.527344 -11.800781 C 6.140625 -11.800781 4.664062 -10.824219 4.207031 -9.675781 L 4.035156 -11.585938 L 1.367188 -11.585938 Z M 1.367188 0 "/></g></g></g><g fill="#000000" fill-opacity="1"><g transform="translate(185.939872, 197.499959)"><g><path d="M 4.597656 0.171875 C 6.617188 0.171875 7.59375 -0.953125 7.808594 -1.324219 L 8.046875 0 L 10.652344 0 L 10.652344 -6.789062 C 10.652344 -10.21875 8.785156 -11.800781 5.574219 -11.800781 C 3.839844 -11.800781 1.628906 -10.910156 0.933594 -9.003906 L 3.277344 -7.722656 C 3.773438 -8.675781 4.492188 -9.066406 5.554688 -9.066406 C 6.636719 -9.066406 7.460938 -8.699219 7.460938 -7.179688 L 7.460938 -6.8125 C 7.136719 -6.875 6.117188 -7.027344 5.402344 -7.027344 C 2.148438 -7.027344 0.757812 -5.207031 0.757812 -3.296875 C 0.757812 -1.34375 2.277344 0.171875 4.597656 0.171875 Z M 5.359375 -2.453125 C 4.535156 -2.453125 3.839844 -2.710938 3.839844 -3.558594 C 3.839844 -4.339844 4.382812 -4.816406 5.707031 -4.816406 C 6.421875 -4.816406 7.179688 -4.75 7.441406 -4.730469 L 7.441406 -3.925781 C 7.332031 -3.230469 6.378906 -2.453125 5.359375 -2.453125 Z M 5.359375 -2.453125 "/></g></g></g><g fill="#000000" fill-opacity="1"><g transform="translate(198.108909, 197.499959)"><g><path d="M 1.367188 0 L 4.707031 0 L 4.707031 -6.941406 C 4.707031 -8.308594 5.53125 -9.132812 6.636719 -9.132812 C 7.746094 -9.132812 8.527344 -8.351562 8.527344 -6.941406 L 8.527344 0 L 11.867188 0 L 11.867188 -7.117188 C 11.867188 -10.542969 9.871094 -11.886719 7.613281 -11.886719 C 6.226562 -11.886719 4.75 -11.171875 4.296875 -10.390625 L 3.90625 -11.585938 L 1.367188 -11.585938 Z M 1.367188 0 "/></g></g></g><g fill="#000000" fill-opacity="1"><g transform="translate(211.536063, 197.499959)"><g><path d="M 5.945312 0.152344 C 7.550781 0.152344 8.699219 -0.414062 9.21875 -1.324219 L 9.5 0 L 12.171875 0 L 12.171875 -15.835938 L 8.699219 -15.835938 L 8.699219 -10.476562 C 8.351562 -11.171875 7.332031 -11.800781 5.792969 -11.800781 C 3.644531 -11.800781 0.824219 -10.109375 0.824219 -5.835938 C 0.824219 -1.734375 3.6875 0.152344 5.945312 0.152344 Z M 6.59375 -2.648438 C 5.574219 -2.648438 4.1875 -3.492188 4.1875 -5.855469 C 4.1875 -8.222656 5.488281 -9.023438 6.617188 -9.023438 C 7.699219 -9.023438 8.9375 -8.046875 8.9375 -5.855469 C 8.9375 -3.644531 7.613281 -2.648438 6.59375 -2.648438 Z M 6.59375 -2.648438 "/></g></g></g><g fill="#000000" fill-opacity="1"><g transform="translate(225.462123, 197.499959)"><g/></g></g><g fill="#000000" fill-opacity="1"><g transform="translate(230.125855, 197.499959)"><g><path d="M 11.453125 0 L 14.902344 0 L 9.351562 -15.402344 L 5.878906 -15.402344 L 0.390625 0 L 3.90625 0 L 4.902344 -2.992188 L 10.414062 -2.992188 Z M 7.613281 -11.148438 L 9.480469 -5.707031 L 5.792969 -5.707031 Z M 7.613281 -11.148438 "/></g></g></g><g fill="#000000" fill-opacity="1"><g transform="translate(245.852321, 197.499959)"><g><path d="M 6.550781 5.273438 C 9.957031 5.273438 11.976562 3.1875 11.976562 -0.433594 L 11.976562 -11.585938 L 8.9375 -11.585938 L 8.785156 -10.390625 C 8.351562 -11.171875 7.160156 -11.757812 5.902344 -11.757812 C 3.578125 -11.757812 0.910156 -10 0.910156 -5.792969 C 0.910156 -1.5625 3.558594 0.261719 5.921875 0.261719 C 7.09375 0.261719 8.15625 -0.347656 8.503906 -1.0625 L 8.503906 -0.414062 C 8.503906 1.691406 7.765625 2.363281 6.464844 2.363281 C 5.140625 2.363281 4.640625 1.800781 4.382812 1.128906 L 1.128906 1.128906 C 1.476562 3.492188 3.035156 5.273438 6.550781 5.273438 Z M 6.507812 -2.582031 C 5.292969 -2.582031 4.144531 -3.578125 4.144531 -5.726562 C 4.144531 -8.027344 5.316406 -8.960938 6.507812 -8.960938 C 7.699219 -8.960938 8.851562 -8.089844 8.851562 -5.726562 C 8.851562 -3.667969 7.722656 -2.582031 6.507812 -2.582031 Z M 6.507812 -2.582031 "/></g></g></g><g fill="#000000" fill-opacity="1"><g transform="translate(259.561465, 197.499959)"><g><path d="M 6.59375 0.21875 C 8.765625 0.21875 10.066406 -0.390625 11.5625 -2.167969 L 9.480469 -3.816406 C 8.808594 -3.082031 8.027344 -2.40625 6.746094 -2.40625 C 5.316406 -2.40625 4.101562 -3.230469 4.011719 -4.816406 L 11.691406 -4.816406 L 11.691406 -6.097656 C 11.691406 -10.023438 9.21875 -11.800781 6.3125 -11.800781 C 3.449219 -11.800781 0.867188 -9.695312 0.867188 -5.726562 C 0.867188 -1.671875 3.558594 0.21875 6.59375 0.21875 Z M 4.011719 -6.941406 C 4.101562 -8.394531 5.054688 -9.285156 6.292969 -9.285156 C 7.59375 -9.285156 8.546875 -8.480469 8.546875 -6.941406 Z M 4.011719 -6.941406 "/></g></g></g><g fill="#000000" fill-opacity="1"><g transform="translate(272.533088, 197.499959)"><g><path d="M 1.367188 0 L 4.707031 0 L 4.707031 -6.941406 C 4.707031 -8.308594 5.53125 -9.132812 6.636719 -9.132812 C 7.746094 -9.132812 8.527344 -8.351562 8.527344 -6.941406 L 8.527344 0 L 11.867188 0 L 11.867188 -7.117188 C 11.867188 -10.542969 9.871094 -11.886719 7.613281 -11.886719 C 6.226562 -11.886719 4.75 -11.171875 4.296875 -10.390625 L 3.90625 -11.585938 L 1.367188 -11.585938 Z M 1.367188 0 "/></g></g></g><g fill="#000000" fill-opacity="1"><g transform="translate(285.960238, 197.499959)"><g><path d="M 6.421875 0.238281 C 9.566406 0.238281 11.476562 -1.214844 11.757812 -4.25 L 8.570312 -4.25 C 8.332031 -3.167969 7.65625 -2.539062 6.398438 -2.539062 C 5.164062 -2.539062 4.058594 -3.558594 4.058594 -5.726562 C 4.058594 -8.003906 5.121094 -9.046875 6.398438 -9.046875 C 7.613281 -9.046875 8.394531 -8.332031 8.589844 -7.289062 L 11.757812 -7.289062 C 11.367188 -10.609375 9.175781 -11.800781 6.398438 -11.800781 C 3.558594 -11.800781 0.847656 -9.890625 0.847656 -5.726562 C 0.847656 -1.648438 3.472656 0.238281 6.421875 0.238281 Z M 6.421875 0.238281 "/></g></g></g><g fill="#000000" fill-opacity="1"><g transform="translate(298.953556, 197.499959)"><g><path d="M 8.003906 0 L 12.148438 -11.585938 L 8.546875 -11.585938 L 6.335938 -3.949219 L 3.90625 -11.585938 L 0.324219 -11.585938 L 4.792969 0 C 4.359375 1.0625 3.730469 1.800781 2.472656 1.800781 C 2.257812 1.800781 1.953125 1.800781 1.734375 1.757812 L 1.734375 4.859375 C 2.105469 4.945312 2.515625 4.96875 2.90625 4.96875 C 5.597656 4.96875 6.921875 3.058594 8.003906 0 Z M 8.003906 0 "/></g></g></g></svg>